<?xml version="1.0" encoding="UTF-8" standalone="no"?>
<!-- Created with Inkscape (http://www.inkscape.org/) -->

<svg
   xmlns:dc="http://purl.org/dc/elements/1.1/"
   xmlns:cc="http://creativecommons.org/ns#"
   xmlns:rdf="http://www.w3.org/1999/02/22-rdf-syntax-ns#"
   xmlns:svg="http://www.w3.org/2000/svg"
   xmlns="http://www.w3.org/2000/svg"
   xmlns:sodipodi="http://sodipodi.sourceforge.net/DTD/sodipodi-0.dtd"
   xmlns:inkscape="http://www.inkscape.org/namespaces/inkscape"
   width="118.94752mm"
   height="109.28303mm"
   viewBox="0 0 118.94752 109.28303"
   version="1.1"
   id="svg3171"
   inkscape:version="0.92.4 (5da689c313, 2019-01-14)"
   sodipodi:docname="asteroid.svg">
  <defs
     id="defs3165" />
  <sodipodi:namedview
     id="base"
     pagecolor="#ffffff"
     bordercolor="#666666"
     borderopacity="1.0"
     inkscape:pageopacity="0.0"
     inkscape:pageshadow="2"
     inkscape:zoom="0.35"
     inkscape:cx="537.63986"
     inkscape:cy="-224.90947"
     inkscape:document-units="mm"
     inkscape:current-layer="layer1"
     showgrid="false"
     fit-margin-top="0"
     fit-margin-left="0"
     fit-margin-right="0"
     fit-margin-bottom="0"
     inkscape:window-width="1920"
     inkscape:window-height="1017"
     inkscape:window-x="-8"
     inkscape:window-y="-8"
     inkscape:window-maximized="1" />
  <metadata
     id="metadata3168">
    <rdf:RDF>
      <cc:Work
         rdf:about="">
        <dc:format>image/svg+xml</dc:format>
        <dc:type
           rdf:resource="http://purl.org/dc/dcmitype/StillImage" />
        <dc:title></dc:title>
      </cc:Work>
    </rdf:RDF>
  </metadata>
  <g
     inkscape:label="Layer 1"
     inkscape:groupmode="layer"
     id="layer1"
     transform="translate(159.25947,19.956989)">
    <g
       id="g3245"
       transform="matrix(0.87805742,0,0,0.87805742,-573.83526,47.066656)">
      <path
         id="path2-5"
         d="m 472.15111,12.144937 v -85.725 c 0.0275,-1.50918 1.24249,-2.72415 2.75167,-2.75167 h 129.96333 c 1.50918,0.0275 2.72415,1.24249 2.75167,2.75167 v 85.725 z"
         style="fill:#415e72;stroke-width:0.26458332"
         inkscape:connector-curvature="0" />
      <g
         id="g8"
         transform="matrix(0.26458333,0,0,0.26458333,472.15111,-81.835063)">
        <path
           id="path4-1"
           d="m 512,355.2 v 41.6 c -0.104,5.704 -4.696,10.296 -10.4,10.4 H 10.4 C 4.696,407.096 0.104,402.504 0,396.8 v -41.6 z"
           style="fill:#cfdce5"
           inkscape:connector-curvature="0" />
        <rect
           id="rect6-9"
           height="10.4"
           width="219.2"
           style="fill:#cfdce5"
           y="480.79999"
           x="146.39999" />
      </g>
      <polygon
         id="polygon10"
         points="318.4,407.2 328.8,480.8 183.2,480.8 193.6,407.2 "
         style="fill:#aac1ce"
         transform="matrix(0.26458333,0,0,0.26458333,472.15111,-81.835063)" />
      <rect
         id="rect12-4"
         height="77.469994"
         width="124.46"
         style="fill:#ffffff;stroke-width:0.26458332"
         y="-70.828392"
         x="477.65445" />
      <polygon
         id="polygon14"
         points="320.272,420.424 318.4,407.2 193.6,407.2 187.792,448.28 "
         style="fill:#8ba0ae"
         transform="matrix(0.26458333,0,0,0.26458333,472.15111,-81.835063)" />
      <rect
         id="rect16-3"
         height="2.1166666"
         width="7.8464832"
         style="fill:#25b6d2;stroke-width:0.26458332"
         y="-46.7873"
         x="560.69336" />
      <rect
         id="rect18-6"
         height="2.1166666"
         width="7.8464832"
         style="fill:#aac1ce;stroke-width:0.26458332"
         y="-46.7873"
         x="541.07611" />
      <g
         id="g24"
         transform="matrix(0.26458333,0,0,0.26458333,472.15111,-81.835063)">
        <rect
           id="rect20-3"
           height="8"
           width="55.759998"
           style="fill:#e04f5f"
           y="132.464"
           x="143.84" />
        <rect
           id="rect22-4"
           height="8"
           width="29.664"
           style="fill:#e04f5f"
           y="232.32001"
           x="355.67999" />
      </g>
      <rect
         id="rect26"
         height="2.1166666"
         width="7.8464832"
         style="fill:#25b6d2;stroke-width:0.26458332"
         y="-20.367058"
         x="546.6366" />
      <rect
         id="rect28-6"
         height="2.1166666"
         width="23.541567"
         style="fill:#e04f5f;stroke-width:0.26458332"
         y="-20.367058"
         x="511.32428" />
      <rect
         id="rect30-5"
         height="2.1166666"
         width="19.619383"
         style="fill:#415e72;stroke-width:0.26458332"
         y="-37.981956"
         x="554.48517" />
      <rect
         id="rect32"
         height="2.1166666"
         width="7.8507171"
         style="fill:#e04f5f;stroke-width:0.26458332"
         y="-37.981956"
         x="538.78796" />
      <rect
         id="rect34"
         height="2.1166666"
         width="17.445566"
         style="fill:#aac1ce;stroke-width:0.26458332"
         y="-37.981956"
         x="513.49597" />
      <rect
         id="rect36"
         height="2.1166666"
         width="15.695084"
         style="fill:#25b6d2;stroke-width:0.26458332"
         y="-29.172401"
         x="558.40948" />
      <rect
         id="rect38-3"
         height="2.1166666"
         width="7.8485999"
         style="fill:#aac1ce;stroke-width:0.26458332"
         y="-29.172401"
         x="542.72076" />
      <g
         id="g68"
         transform="matrix(0.26458333,0,0,0.26458333,472.15111,-81.835063)">
        <rect
           id="rect40-3"
           height="8"
           width="71.136002"
           style="fill:#415e72"
           y="199.03999"
           x="136.24001" />
        <path
           id="path42"
           d="m 129.416,86.848 19.312,-9.952 v 2.872 l -16.272,8.16 V 88 l 16.272,8.16 v 2.872 l -19.312,-9.944 z"
           style="fill:#415e72"
           inkscape:connector-curvature="0" />
        <path
           id="path44"
           d="m 154.504,69.488 h 3.664 v 12.568 h 0.08 c 0.624,-1.08 1.528,-1.976 2.624,-2.576 1.136,-0.672 2.432,-1.024 3.752,-1.04 2.704,0 7.032,1.664 7.032,8.608 v 12 H 168 V 87.472 c 0,-3.248 -1.2,-5.992 -4.656,-5.992 -2.248,0.04 -4.224,1.512 -4.912,3.656 -0.2,0.56 -0.288,1.16 -0.248,1.752 v 12.16 h -3.664 z"
           style="fill:#415e72"
           inkscape:connector-curvature="0" />
        <path
           id="path46"
           d="m 181.84,73.112 v 5.784 h 5.24 v 2.792 h -5.24 v 10.864 c 0,2.504 0.704,3.912 2.744,3.912 0.72,0.008 1.432,-0.072 2.128,-0.248 l 0.168,2.744 c -1.04,0.368 -2.136,0.544 -3.24,0.504 -1.48,0.088 -2.92,-0.472 -3.952,-1.536 -1.12,-1.504 -1.624,-3.376 -1.416,-5.24 v -11 h -3.128 v -2.792 h 3.128 v -4.8 z"
           style="fill:#415e72"
           inkscape:connector-curvature="0" />
        <path
           id="path48"
           d="m 191.2,84.352 c 0,-2.08 0,-3.792 -0.168,-5.456 h 3.2 l 0.168,3.248 h 0.128 c 1.232,-2.336 3.688,-3.776 6.328,-3.704 2.56,-0.032 4.864,1.576 5.704,4 h 0.088 c 0.56,-1.016 1.32,-1.904 2.24,-2.616 1.28,-0.976 2.856,-1.48 4.464,-1.416 2.664,0 6.616,1.744 6.616,8.736 v 11.864 h -3.584 V 87.64 c 0,-3.864 -1.416,-6.2 -4.368,-6.2 -2,0.088 -3.736,1.416 -4.328,3.328 -0.192,0.592 -0.288,1.208 -0.288,1.832 v 12.448 h -3.584 V 86.976 c 0,-3.2 -1.416,-5.536 -4.2,-5.536 -2.136,0.128 -3.96,1.6 -4.536,3.664 -0.2,0.576 -0.296,1.184 -0.288,1.792 v 12.16 H 191.2 Z"
           style="fill:#415e72"
           inkscape:connector-curvature="0" />
        <path
           id="path50-7"
           d="M 225.904,69.488 H 229.6 V 99.04 h -3.664 z"
           style="fill:#415e72"
           inkscape:connector-curvature="0" />
        <path
           id="path52"
           d="M 254.752,89.136 235.44,99.048 V 96.176 L 251.832,88 v -0.088 l -16.4,-8.16 v -2.856 l 19.312,9.912 z"
           style="fill:#415e72"
           inkscape:connector-curvature="0" />
        <path
           id="path54"
           d="m 129.416,291.512 19.312,-9.952 v 2.872 l -16.272,8.16 v 0.088 l 16.272,8.16 v 2.872 l -19.312,-9.952 z"
           style="fill:#415e72"
           inkscape:connector-curvature="0" />
        <path
           id="path56"
           d="M 151.424,305.376 163.032,275.2 h 2.832 l -11.656,30.176 z"
           style="fill:#415e72"
           inkscape:connector-curvature="0" />
        <path
           id="path58"
           d="m 168.8,274.152 h 3.664 v 12.568 h 0.08 c 0.624,-1.08 1.528,-1.976 2.624,-2.576 1.136,-0.672 2.432,-1.024 3.752,-1.04 2.704,0 7.032,1.664 7.032,8.616 v 12 h -3.664 v -11.584 c 0,-3.248 -1.2,-5.992 -4.656,-5.992 -2.248,0.04 -4.224,1.512 -4.912,3.656 -0.2,0.56 -0.288,1.16 -0.248,1.752 v 12.16 H 168.8 Z"
           style="fill:#415e72"
           inkscape:connector-curvature="0" />
        <path
           id="path60"
           d="m 196.12,277.776 v 5.784 h 5.24 v 2.792 h -5.24 v 10.864 c 0,2.496 0.704,3.912 2.744,3.912 0.72,0.008 1.432,-0.072 2.128,-0.248 l 0.168,2.744 c -1.04,0.368 -2.136,0.544 -3.24,0.504 -1.48,0.088 -2.92,-0.472 -3.952,-1.536 -1.12,-1.504 -1.624,-3.376 -1.416,-5.24 v -11 h -3.128 v -2.792 h 3.128 v -4.8 z"
           style="fill:#415e72"
           inkscape:connector-curvature="0" />
        <path
           id="path62"
           d="m 205.48,289.016 c 0,-2.08 0,-3.792 -0.168,-5.456 h 3.2 l 0.168,3.248 h 0.12 c 1.232,-2.336 3.688,-3.776 6.328,-3.704 2.56,-0.032 4.864,1.576 5.704,4 h 0.088 c 0.56,-1.016 1.32,-1.904 2.24,-2.616 1.28,-0.976 2.856,-1.48 4.464,-1.416 2.664,0 6.616,1.744 6.616,8.736 v 11.864 h -3.584 v -11.368 c 0,-3.864 -1.416,-6.2 -4.368,-6.2 -2,0.088 -3.736,1.416 -4.328,3.328 -0.192,0.592 -0.288,1.208 -0.288,1.832 v 12.448 h -3.584 V 291.64 c 0,-3.2 -1.416,-5.536 -4.2,-5.536 -2.136,0.128 -3.96,1.6 -4.536,3.664 -0.2,0.576 -0.296,1.184 -0.288,1.792 v 12.16 h -3.576 z"
           style="fill:#415e72"
           inkscape:connector-curvature="0" />
        <path
           id="path64-4"
           d="m 240.176,274.152 h 3.664 v 29.552 h -3.664 z"
           style="fill:#415e72"
           inkscape:connector-curvature="0" />
        <path
           id="path66-9"
           d="m 269.024,293.8 -19.312,9.904 V 300.8 l 16.4,-8.16 v -0.088 l -16.4,-8.16 v -2.872 l 19.312,9.912 z"
           style="fill:#415e72"
           inkscape:connector-curvature="0" />
      </g>
    </g>
  </g>
</svg>
