<?xml version="1.0" encoding="UTF-8" standalone="no"?>
<!-- Created with Inkscape (http://www.inkscape.org/) -->

<svg
   xmlns:dc="http://purl.org/dc/elements/1.1/"
   xmlns:cc="http://creativecommons.org/ns#"
   xmlns:rdf="http://www.w3.org/1999/02/22-rdf-syntax-ns#"
   xmlns:svg="http://www.w3.org/2000/svg"
   xmlns="http://www.w3.org/2000/svg"
   xmlns:sodipodi="http://sodipodi.sourceforge.net/DTD/sodipodi-0.dtd"
   xmlns:inkscape="http://www.inkscape.org/namespaces/inkscape"
   width="155.87035mm"
   height="83.677574mm"
   viewBox="0 0 155.87035 83.677574"
   version="1.1"
   id="svg4447"
   inkscape:version="0.92.4 (5da689c313, 2019-01-14)"
   sodipodi:docname="105.svg">
  <defs
     id="defs4441" />
  <sodipodi:namedview
     id="base"
     pagecolor="#ffffff"
     bordercolor="#666666"
     borderopacity="1.0"
     inkscape:pageopacity="0.0"
     inkscape:pageshadow="2"
     inkscape:zoom="0.35"
     inkscape:cx="1538.8439"
     inkscape:cy="-533.29771"
     inkscape:document-units="mm"
     inkscape:current-layer="layer1"
     showgrid="false"
     fit-margin-top="0"
     fit-margin-left="0"
     fit-margin-right="0"
     fit-margin-bottom="0"
     inkscape:window-width="1920"
     inkscape:window-height="1017"
     inkscape:window-x="-8"
     inkscape:window-y="-8"
     inkscape:window-maximized="1" />
  <metadata
     id="metadata4444">
    <rdf:RDF>
      <cc:Work
         rdf:about="">
        <dc:format>image/svg+xml</dc:format>
        <dc:type
           rdf:resource="http://purl.org/dc/dcmitype/StillImage" />
        <dc:title></dc:title>
      </cc:Work>
    </rdf:RDF>
  </metadata>
  <g
     inkscape:label="Layer 1"
     inkscape:groupmode="layer"
     id="layer1"
     transform="translate(424.16137,75.945928)">
    <g
       id="g16"
       transform="matrix(0.30443376,0,0,0.30443376,-424.16137,-112.04203)">
      <g
         id="g14">
        <g
           id="g12">
          <path
             d="M 482.357,118.568 H 29.642 C 13.298,118.568 0,131.866 0,148.21 V 256 c 0,16.344 13.298,29.642 29.642,29.642 h 289.954 c 4.466,0 8.084,-3.618 8.084,-8.084 0,-4.466 -3.618,-8.084 -8.084,-8.084 H 29.642 c -7.43,0 -13.474,-6.044 -13.474,-13.474 V 148.21 c 0,-7.43 6.044,-13.474 13.474,-13.474 h 452.715 c 7.43,0 13.474,6.044 13.474,13.474 v 97.011 c 0,4.466 3.618,8.084 8.084,8.084 4.466,0 8.084,-3.618 8.084,-8.084 V 148.21 c 0,-16.344 -13.298,-29.642 -29.642,-29.642 z"
             id="path2"
             inkscape:connector-curvature="0" />
          <path
             d="m 496.584,264.242 -60.181,-23.549 c 0.775,-1.241 1.222,-2.707 1.222,-4.277 v -26.227 h 26.947 v 26.228 c 0,4.466 3.618,8.084 8.084,8.084 4.466,0 8.084,-3.619 8.084,-8.084 v -68.625 c 0,-4.466 -3.618,-8.084 -8.084,-8.084 -4.466,0 -8.084,3.618 -8.084,8.084 v 26.228 h -26.947 v -26.228 c 0,-4.466 -3.618,-8.084 -8.084,-8.084 -4.466,0 -8.084,3.618 -8.084,8.084 v 67.054 l -54.973,-21.512 v -28.386 c 0,-4.832 6.296,-9.072 13.474,-9.072 h 21.558 c 4.466,0 8.084,-3.619 8.084,-8.084 0,-4.466 -3.618,-8.084 -8.084,-8.084 h -21.558 c -16.344,0 -29.642,11.322 -29.642,25.24 v 25.076 c -5.441,0.603 -10.643,3.016 -14.674,7.047 0,0 0,0 -10e-4,0.001 -1.982,1.982 -3.573,4.247 -4.75,6.684 l -10.135,-16.133 c 9.839,-4.111 16.628,-12.731 16.628,-22.676 0,-13.918 -13.298,-25.24 -29.642,-25.24 h -32.337 c -4.466,0 -8.084,3.619 -8.084,8.084 v 68.625 c 0,4.466 3.618,8.084 8.084,8.084 4.466,0 8.084,-3.618 8.084,-8.084 v -60.541 h 24.253 c 7.178,0 13.474,4.239 13.474,9.072 0,4.811 -6.236,9.033 -13.37,9.073 -0.081,-0.002 -0.161,-0.002 -0.24,0 H 296.96 c -4.466,0 -8.084,3.618 -8.084,8.084 0,4.466 3.618,8.084 8.084,8.084 h 6.31 l 19.181,30.529 c 1.77,2.817 4.993,4.169 8.08,3.691 l 52.28,133.606 c 3.396,8.677 11.274,14.55 20.559,15.33 0.696,0.058 1.388,0.087 2.078,0.087 8.495,-10e-4 16.312,-4.387 20.745,-11.778 l 27.761,-46.269 46.269,-27.761 c 7.989,-4.793 12.468,-13.538 11.691,-22.823 -0.78,-9.284 -6.654,-17.161 -15.33,-20.558 z m -4.679,29.518 -48.002,28.801 c -1.138,0.683 -2.09,1.636 -2.773,2.773 l -28.801,48.002 c -1.621,2.703 -4.462,4.162 -7.607,3.896 -3.142,-0.263 -5.704,-2.174 -6.853,-5.109 L 345.19,237.501 c -1.216,-3.106 -0.476,-6.637 1.882,-8.996 l 10e-4,-0.001 c 1.604,-1.605 3.751,-2.46 5.938,-2.46 0.368,0 0.735,0.024 1.101,0.072 1.104,0.693 2.389,1.125 3.766,1.213 L 490.691,279.3 c 2.936,1.149 4.846,3.711 5.109,6.853 0.264,3.141 -1.192,5.985 -3.895,7.607 z"
             id="path4"
             inkscape:connector-curvature="0" />
          <path
             d="M 71.68,228.333 H 50.122 c -4.466,0 -8.084,3.618 -8.084,8.084 0,4.466 3.618,8.084 8.084,8.084 H 71.68 c 16.344,0 29.642,-11.323 29.642,-25.24 0,-13.918 -13.298,-25.241 -29.642,-25.241 H 60.901 c -7.178,0 -13.474,-4.24 -13.474,-9.073 0,-4.833 6.296,-9.072 13.474,-9.072 h 21.558 c 4.466,0 8.084,-3.618 8.084,-8.084 0,-4.466 -3.618,-8.084 -8.084,-8.084 H 60.901 c -16.344,0 -29.642,11.322 -29.642,25.24 0,13.918 13.298,25.241 29.642,25.241 H 71.68 c 7.178,0 13.474,4.24 13.474,9.073 0,4.833 -6.296,9.072 -13.474,9.072 z"
             id="path6"
             inkscape:connector-curvature="0" />
          <path
             d="m 217.196,159.708 c -13.375,0 -24.377,8.242 -26.161,19.597 l -8.774,55.858 c -0.693,4.411 2.321,8.549 6.731,9.241 4.408,0.686 8.549,-2.32 9.241,-6.731 l 2.97,-18.905 h 31.983 l 2.97,18.905 c 0.626,3.985 4.065,6.831 7.975,6.831 0.418,0 0.84,-0.032 1.265,-0.099 4.411,-0.693 7.425,-4.83 6.731,-9.241 l -8.774,-55.857 C 241.572,167.95 230.57,159.708 217.196,159.708 Z m -13.452,42.891 3.264,-20.785 c 0.448,-2.854 4.47,-5.937 10.187,-5.937 5.717,0 9.739,3.082 10.187,5.938 l 3.264,20.784 z"
             id="path8"
             inkscape:connector-curvature="0" />
          <path
             d="m 140.665,175.877 h 21.558 c 4.466,0 8.084,-3.618 8.084,-8.084 0,-4.466 -3.618,-8.084 -8.084,-8.084 h -21.558 c -16.344,0 -29.642,11.322 -29.642,25.24 v 34.314 c 0,13.917 13.298,25.24 29.642,25.24 h 21.558 c 4.466,0 8.084,-3.618 8.084,-8.084 0,-4.466 -3.618,-8.084 -8.084,-8.084 h -21.558 c -7.178,0 -13.474,-4.239 -13.474,-9.072 v -9.073 h 35.032 c 4.466,0 8.084,-3.618 8.084,-8.084 0,-4.466 -3.618,-8.084 -8.084,-8.084 h -35.032 v -9.073 c 10e-4,-4.834 6.297,-9.072 13.474,-9.072 z"
             id="path10"
             inkscape:connector-curvature="0" />
        </g>
      </g>
    </g>
  </g>
</svg>
