<?xml version="1.0" encoding="UTF-8" standalone="no"?>
<!-- Created with Inkscape (http://www.inkscape.org/) -->

<svg
   xmlns:dc="http://purl.org/dc/elements/1.1/"
   xmlns:cc="http://creativecommons.org/ns#"
   xmlns:rdf="http://www.w3.org/1999/02/22-rdf-syntax-ns#"
   xmlns:svg="http://www.w3.org/2000/svg"
   xmlns="http://www.w3.org/2000/svg"
   xmlns:sodipodi="http://sodipodi.sourceforge.net/DTD/sodipodi-0.dtd"
   xmlns:inkscape="http://www.inkscape.org/namespaces/inkscape"
   width="132.63982mm"
   height="114.407mm"
   viewBox="0 0 132.63982 114.407"
   version="1.1"
   id="svg7858"
   inkscape:version="0.92.4 (5da689c313, 2019-01-14)"
   sodipodi:docname="108.svg">
  <defs
     id="defs7852" />
  <sodipodi:namedview
     id="base"
     pagecolor="#ffffff"
     bordercolor="#666666"
     borderopacity="1.0"
     inkscape:pageopacity="0.0"
     inkscape:pageshadow="2"
     inkscape:zoom="0.35"
     inkscape:cx="426.37221"
     inkscape:cy="90.487924"
     inkscape:document-units="mm"
     inkscape:current-layer="layer1"
     showgrid="false"
     fit-margin-top="0"
     fit-margin-left="0"
     fit-margin-right="0"
     fit-margin-bottom="0"
     inkscape:window-width="1920"
     inkscape:window-height="1017"
     inkscape:window-x="-8"
     inkscape:window-y="-8"
     inkscape:window-maximized="1" />
  <metadata
     id="metadata7855">
    <rdf:RDF>
      <cc:Work
         rdf:about="">
        <dc:format>image/svg+xml</dc:format>
        <dc:type
           rdf:resource="http://purl.org/dc/dcmitype/StillImage" />
        <dc:title></dc:title>
      </cc:Work>
    </rdf:RDF>
  </metadata>
  <g
     inkscape:label="Layer 1"
     inkscape:groupmode="layer"
     id="layer1"
     transform="translate(129.81991,-58.367929)">
    <path
       style="fill:#000000;stroke-width:0.35952458"
       d="m -64.187412,169.7723 c 1.56903,-1.65144 3.055041,-3.10244 3.302191,-3.22444 0.495969,-0.24479 0.640019,3.02698 0.224708,5.10355 l -0.224708,1.12352 h -3.077501 -3.077491 z m -11.039641,2.08942 c -1.70864,-0.26622 -3.650078,-0.63014 -4.314288,-0.8087 l -1.207612,-0.32466 1.438101,-0.61922 c 3.844491,-1.6554 12.520869,-4.8868 12.68376,-4.72392 0.10137,0.10137 -0.560369,1.72464 -1.470531,3.60725 -1.9011,3.93228 -1.456078,3.75319 -7.12943,2.86925 z m 17.85018,-0.17479 c 0.144471,-0.45521 0.706282,-1.81226 1.248421,-3.01567 l 0.98574,-2.18801 0.79444,2.64099 c 0.43692,1.45254 0.705591,2.7298 0.597051,2.83833 -0.1085,0.1085 -1.02779,0.27714 -2.04284,0.37466 -1.793592,0.17235 -1.838111,0.15407 -1.582812,-0.6503 z m 6.50384,-3.27001 c -0.136179,-1.80368 -0.190559,-3.33641 -0.12091,-3.40607 0.0696,-0.0697 1.115111,1.20376 2.323222,2.82982 l 2.196539,2.95648 -1.857571,0.43436 c -1.021688,0.23891 -1.95572,0.44123 -2.075659,0.44961 -0.119951,0.008 -0.329459,-1.46051 -0.465621,-3.2642 z m -36.552288,0.43093 c -10.047171,-3.38106 -18.806549,-8.64337 -25.836379,-15.52157 l -2.67225,-2.61457 2.52111,-2.36069 c 2.2214,-2.08004 2.93444,-2.50786 5.99783,-3.59865 1.91221,-0.68089 3.47674,-1.34884 3.47674,-1.48436 0,-0.13552 -0.48744,-0.44828 -1.08316,-0.69504 -0.64435,-0.2669 -1.17271,-0.80546 -1.30421,-1.32943 -0.27906,-1.11183 -0.75833,-1.00666 -5.3162,1.16652 -2.6578,1.26722 -3.76472,2.03389 -5.05373,3.50027 l -1.65054,1.87764 -0.71398,-0.89881 c -1.4875,-1.87254 -4.82654,-7.48171 -6.09952,-10.24646 -1.71487,-3.72448 -2.75465,-6.91085 -3.60435,-11.04558 l -0.68544,-3.3354 0.80136,-0.61915 c 1.21165,-0.9361 4.84835,-2.31291 7.46103,-2.82464 1.73698,-0.34021 2.57239,-0.71612 3.28881,-1.47989 1.34698,-1.43604 3.81656,-2.4337 6.67008,-2.69463 2.12445,-0.19423 2.68933,-0.413 4.41364,-1.70938 1.08755,-0.81764 2.42104,-1.76623 2.96331,-2.10797 0.54225,-0.34175 1.40798,-1.45429 1.92386,-2.47233 0.51587,-1.01803 1.77097,-2.68287 2.789088,-3.69964 3.306419,-3.30203 7.595809,-4.83207 14.37467,-5.12753 l 4.254439,-0.18542 -0.29968,-2.201661 c -0.546219,-4.012859 -0.352719,-14.89522 0.307591,-17.30167 1.74502,-6.35913 3.189539,-8.43505 7.25592,-10.42736 4.573749,-2.24091 7.758269,-2.8406 15.146391,-2.85228 5.484008,-0.008 6.943018,0.1092 9.5622,0.77261 5.987299,1.51649 9.449758,3.71279 10.543,6.68762 1.304949,3.55087 2.361978,13.32395 2.363838,21.855382 v 5.609759 l 2.606561,0.22526 c 5.230161,0.45198 10.841631,2.58949 16.487731,6.28046 1.50474,0.9837 3.68886,2.06467 4.85357,2.40219 4.6551904,1.34897 8.7908804,3.78164 12.04113043,7.08276 l 2.20472997,2.23924 -0.23564,2.30021 c -0.62845,6.1339 -3.45038,14.14736 -7.0735,20.08647 -3.5312,5.78846 -9.7875204,12.5411 -15.6148604,16.85361 -3.49016,2.58286 -8.93176,5.76201 -12.600682,7.36168 l -2.723028,1.18727 -3.092051,-3.09207 -3.092079,-3.09207 4.81635,1.3944 c 2.648969,0.76693 4.86409,1.34665 4.92247,1.28827 0.0583,-0.0584 -1.554771,-0.91747 -3.584771,-1.90907 l -3.690781,-1.80291 6.65122,-0.29177 c 7.508002,-0.32935 7.547312,-0.23358 -0.898829,-2.18983 -4.230791,-0.97991 -4.282959,-1.00402 -2.69644,-1.24546 0.88983,-0.13542 4.287329,-0.46626 7.550031,-0.7352 6.91933,-0.57037 5.19102,-0.78075 -4.92642,-0.59969 -3.401611,0.0609 -6.071082,0.0152 -5.93216,-0.1016 0.138949,-0.11677 2.5985,-0.90814 5.465699,-1.7586 5.454001,-1.61775 7.261341,-2.34447 5.033361,-2.02389 -0.692101,0.0995 -3.442461,0.27517 -6.111932,0.39019 l -4.853578,0.20912 8.269068,-4.14976 c 4.548002,-2.28238 8.026392,-4.08325 7.729782,-4.00194 -0.2966,0.0814 -3.53233,1.31315 -7.1905,2.73748 -3.658161,1.42431 -7.015221,2.73132 -7.460141,2.90446 -0.444911,0.17314 -0.80893,0.24947 -0.80893,0.16959 0,-0.0798 1.45964,-1.39356 3.24362,-2.91932 1.784001,-1.52576 3.19115,-2.82659 3.12701,-2.89074 -0.0641,-0.0641 -2.454061,0.74448 -5.310899,1.79694 -2.85682,1.05246 -5.22668,1.89136 -5.266362,1.86421 -0.0396,-0.0272 0.486151,-1.8085 1.16845,-3.95855 0.68231,-2.15004 1.24057,-3.96719 1.24057,-4.03813 0,-0.071 -0.484679,0.39939 -1.077049,1.04516 l -1.07704,1.17414 1.080111,-2.66342 c 0.594048,-1.46488 1.01168,-2.73183 0.92805,-2.81545 -0.0837,-0.0835 -0.462092,0.0139 -0.841092,0.21676 -0.429138,0.22967 -1.329798,2.03761 -2.387618,4.79283 -0.934212,2.43323 -2.03354,4.82851 -2.442972,5.32286 l -0.744429,0.89881 0.255979,-1.25834 c 0.140782,-0.69208 0.56656,-2.5382 0.9462,-4.10247 0.379632,-1.56428 0.622581,-2.9118 0.53988,-2.99449 -0.0827,-0.0826 -1.132388,1.68252 -2.332678,3.92271 -1.200272,2.24019 -2.177211,3.83039 -2.170951,3.53378 0.006,-0.2966 0.46691,-3.12786 1.02372,-6.29168 0.556789,-3.16382 0.972691,-5.80044 0.92415,-5.85916 -0.0486,-0.0587 -0.744429,1.55915 -1.546511,3.59524 -0.80205,2.03612 -1.468588,3.34628 -1.481129,2.91151 -0.0208,-0.71455 0.765789,-7.39594 1.239941,-10.53452 0.382148,-2.52947 -0.448292,-0.11253 -1.822072,5.30299 -0.764918,3.01551 -1.48781,5.48274 -1.606338,5.48274 -0.118571,0 -0.42807,-1.73919 -0.687782,-3.86488 -0.6911,-5.65604 -0.960909,-5.82948 -1.231199,-0.79144 -0.13212,2.46211 -0.342141,6.38647 -0.466781,8.72079 -0.124618,2.33434 -0.343799,4.11399 -0.48701,3.95477 -0.14323,-0.15919 -0.623239,-1.78597 -1.066718,-3.61505 -0.889532,-3.66891 -1.050221,-3.80061 -3.42596,-2.80796 -1.063831,0.44451 -2.687212,2.34868 -2.6914,3.15693 0,0.14251 1.049099,1.1009 2.332998,2.12975 1.28392,1.02884 2.28215,1.92286 2.21832,1.98669 -0.0639,0.0637 -1.154759,-0.38961 -2.424229,-1.00766 -7.107349,-3.46007 -12.67799,-6.0608 -12.774772,-5.96404 -0.0607,0.0607 0.761421,0.80601 1.826951,1.65624 3.628699,2.89554 3.44048,3.10138 -0.88778,0.9711 -2.273999,-1.11922 -4.590648,-2.28744 -5.148109,-2.59606 -0.557501,-0.30861 -1.080601,-0.49413 -1.162482,-0.41224 -0.0819,0.0819 1.856521,1.51327 4.307602,3.18087 2.451061,1.66759 4.419431,3.06976 4.37415,3.11592 -0.0452,0.0461 -2.33648,-0.8026 -5.09161,-1.88614 -2.755151,-1.08356 -5.17112,-1.96942 -5.368851,-1.9686 -0.19776,7.9e-4 2.111881,1.47906 5.132502,3.28499 3.020618,1.80593 5.423228,3.35232 5.339119,3.43643 -0.0841,0.0841 -4.95918,-1.08082 -10.83356,-2.5887 -5.87434,-1.50788 -10.738911,-2.68334 -10.81015,-2.6121 -0.0712,0.0712 4.892871,1.7943 11.03131,3.82906 6.138428,2.03475 11.108071,3.74451 11.043639,3.79946 -0.0644,0.055 -4.634939,-0.12025 -10.1567,-0.38934 -5.521759,-0.2691 -10.093669,-0.43516 -10.159789,-0.36903 -0.0662,0.0662 3.118369,0.98019 7.07671,2.03123 3.958339,1.05105 7.117829,1.99014 7.021111,2.08686 -0.138272,0.13828 -12.180092,0.97794 -22.300923,1.55502 -2.671236,0.15232 9.645822,0.5769 18.126062,0.62483 4.630359,0.0262 8.33482,0.13163 8.2321,0.23435 -0.102751,0.10275 -3.324971,1.30768 -7.160529,2.67769 -3.835572,1.37001 -6.650191,2.49491 -6.254743,2.49977 0.395492,0.005 4.681842,-0.70223 9.52527,-1.57131 4.843413,-0.86908 8.853231,-1.53311 8.910712,-1.47563 0.138811,0.1388 -14.522162,8.11045 -14.903731,8.10363 -0.16307,-0.003 -2.168368,-0.6352 -4.45622,-1.4051 z m 72.45795,-16.90282 c 0.84051,-1.65865 0.85684,-1.78864 0.24912,-1.98153 -1.0313,-0.32732 -2.44237,-1.99667 -3.66233,-4.33268 l -1.12656,-2.15714 0.21092,1.51763 c 0.43061,3.09831 2.5438,8.72881 3.27602,8.72881 0.0843,0 0.55812,-0.79879 1.05283,-1.77509 z m 4.36622,-9.54994 c 1.1572004,-2.44365 1.1579804,-5.72516 0.003,-8.44882 -0.46157,-1.08756 -2.22003,-4.46373 -3.90765,-7.5026 l -3.06838,-5.5252 -5.16181,-3.24271 -5.16181,-3.24272 -3.772412,0.45375 c -2.074828,0.24957 -3.949481,0.52169 -4.165889,0.60474 -0.216392,0.0831 -1.32022,1.27755 -2.45297,2.65447 -1.586831,1.92887 -2.0335,2.72976 -1.94605,3.48936 0.0897,0.78038 0.324789,1.0101 1.127249,1.10206 0.81575,0.0934 1.36996,-0.24003 2.83768,-1.70773 l 1.824069,-1.82393 h 2.754302 c 2.676111,0 2.788981,0.0358 3.974631,1.25903 0.73888,0.76233 1.08582,1.38083 0.87944,1.56776 -0.18746,0.1698 -2.54187,1.3156 -5.232052,2.54624 -4.648218,2.12638 -5.047059,2.3941 -8.028479,5.38939 -2.694991,2.70756 -3.120491,3.2988 -3.01833,4.19415 0.20342,1.78267 1.31373,1.51976 4.842039,-1.14658 2.706481,-2.04527 3.80669,-2.61686 7.30413,-3.79469 4.515902,-1.52081 4.690672,-1.55843 4.690672,-1.00976 0,0.20733 -1.7392,1.18879 -3.864892,2.18103 -2.125699,0.99224 -5.44232,2.77863 -7.37027,3.96976 -2.885959,1.78301 -3.505369,2.32083 -3.505369,3.04367 0,1.57135 1.25808,1.62821 4.489809,0.20292 3.161681,-1.39441 10.508792,-4.01468 11.269372,-4.01913 0.26366,-0.001 0.41407,0.19308 0.33428,0.43249 -0.0797,0.23939 -1.58982,0.87627 -3.35558,1.41525 -3.793801,1.15804 -7.954561,2.78369 -9.14104,3.57148 -0.92424,0.61366 -0.821722,1.61428 0.205758,2.00856 0.32077,0.12308 2.070711,-0.1179 3.888769,-0.53552 1.818042,-0.41762 4.820313,-0.93091 6.671653,-1.14064 3.14299,-0.35603 3.41599,-0.33448 4.11884,0.32529 0.88315,0.82906 3.71662,2.1701 4.60914,2.18146 0.34137,0.005 1.39298,1.04479 2.3369,2.31211 l 1.71622,2.30424 1.21249,-1.13578 c 0.66687,-0.62466 1.59555,-1.9447 2.06376,-2.9334 z m -54.697111,2.72441 c 0.527071,-1.66062 4.138951,-3.97166 6.221431,-3.98073 0.29949,-0.001 0.18174,-0.37861 -0.337251,-1.08058 -1.680401,-2.27287 -6.028061,-0.99834 -7.725479,2.26472 -0.478152,0.91918 -0.457052,1.11391 0.243258,2.24704 0.869082,1.40621 1.28116,1.54792 1.598041,0.54955 z m -33.0575,-2.19605 c 0.64824,-0.7163 0.629569,-0.7617 -0.998741,-2.42678 -1.437547,-1.47003 -1.758667,-2.08926 -2.402497,-4.63291 -0.89459,-3.53424 -0.93584,-4.07668 -0.25433,-3.34275 0.26889,0.28955 0.94816,1.87299 1.50947,3.51876 0.905226,2.6541 1.220999,3.15189 2.793798,4.40418 1.91188,1.52224 3.38745,1.80951 4.350089,0.8469 0.804881,-0.80491 0.721641,-1.14717 -0.70149,-2.88389 -0.90996,-1.11048 -1.570339,-2.56849 -2.346089,-5.17975 -0.978551,-3.29399 -1.10566,-4.87521 -0.32761,-4.07597 0.161139,0.16554 0.890469,1.90139 1.620719,3.85746 2.136999,5.72422 3.956991,7.72925 6.120942,6.74329 1.199578,-0.54656 1.11365,-1.62642 -0.318971,-4.0081 -1.036162,-1.72254 -3.123041,-7.46351 -3.123041,-8.59134 0,-1.17646 0.673909,-0.0138 1.734071,2.99164 0.85422,2.42159 1.81374,4.24043 3.36623,6.38087 3.11585,4.29584 4.246351,5.01524 5.747031,3.65717 1.034219,-0.93596 0.805658,-1.78637 -1.472661,-5.47949 -1.554422,-2.51969 -2.429761,-4.46426 -3.23873,-7.19494 -0.60973,-2.05812 -1.04227,-3.80838 -0.96116,-3.88948 0.0811,-0.0811 0.44645,0.283 0.81193,0.80911 0.365469,0.52611 1.09143,1.46216 1.61322,2.08012 l 0.948719,1.12356 1.328081,-0.70731 c 0.730449,-0.38902 1.39337,-0.80964 1.47319,-0.9347 0.30534,-0.47854 -1.35523,-2.07886 -2.902471,-2.79718 -0.889059,-0.41273 -2.358269,-1.09512 -3.26493,-1.51638 -2.226468,-1.03449 -4.13921,-1.04712 -5.506339,-0.0364 -0.59682,0.44126 -1.598411,0.8023 -2.225741,0.8023 -1.247529,0 -3.37127,1.14065 -3.69516,1.98466 -0.11802,0.30761 -0.6634,0.532 -1.292961,0.532 -0.751316,0 -1.546926,0.41387 -2.566766,1.33523 -0.81287,0.73438 -1.90538,1.39206 -2.42781,1.46154 -1.13833,0.15136 -2.4366,1.29012 -2.69124,2.36056 -0.10137,0.42615 0.41071,2.90211 1.13804,5.50211 l 1.32235,4.72729 1.97738,1.64654 c 2.23918,1.86453 3.756456,2.1553 4.863478,0.93204 z m -17.299058,-0.39849 2.00939,-0.76894 0.008,-1.83762 c 0.009,-1.95163 1.11147,-5.08926 2.44718,-6.96511 1.01111,-1.41999 0.98958,-1.52369 -0.31643,-1.52369 -2.44666,0 -4.49963,1.98325 -5.71762,5.5235 -0.85672,2.49004 -1.3513,6.34081 -0.81441,6.34081 0.20569,0 1.2782,-0.34603 2.38335,-0.76895 z m 48.388047,-1.536 c 0,-0.68754 1.98836,-2.31557 3.17355,-2.59845 1.80186,-0.43005 1.80761,-0.40426 -0.747969,-3.36999 l -1.349409,-1.566 -1.055002,1.01076 c -0.95599,0.9159 -1.036069,1.1707 -0.853178,2.71504 0.11104,0.93736 0.0338,2.0046 -0.171622,2.37167 -0.241308,0.43117 -0.252551,0.89336 -0.0318,1.30584 0.408548,0.7634 1.035428,0.8428 1.035428,0.13113 z m -1.363178,-2.92193 c -0.575821,-3.87379 -0.599432,-3.70034 0.596159,-4.3809 0.617101,-0.35128 1.123,-0.73062 1.124281,-0.843 0,-0.11242 -2.474471,-3.02452 -5.501611,-6.47145 -5.41863,-6.17004 -5.525521,-6.26638 -6.900971,-6.21989 -1.52658,0.0515 -2.86666,1.23562 -2.591088,2.2894 0.0834,0.31914 2.86798,4.1782 6.187829,8.57567 4.121351,5.45907 6.2192,7.95734 6.613181,7.87542 0.341698,-0.071 0.534299,-0.40765 0.47222,-0.82525 z m 63.0955404,-3.14956 -1.23362,-1.61614 -1.03799,0.83286 -1.03802,0.83286 0.89883,0.348 c 0.49433,0.1914 1.46505,0.58585 2.15715,0.87655 0.69207,0.29068 1.30983,0.48656 1.3728,0.43527 0.0629,-0.0513 -0.44064,-0.82053 -1.11915,-1.7094 z m -72.7092714,0.12581 c 0.115949,-0.18759 0.02551,-1.07704 -0.20099,-1.97652 l -0.41183,-1.63544 -1.395621,0.78439 c -1.517529,0.8529 -1.721729,1.49337 -0.800619,2.51118 0.626219,0.69197 2.45,0.89738 2.80906,0.31639 z m -37.520288,-2.5626 c 0.57661,-0.41059 0.96823,-0.87628 0.87022,-1.03486 -0.73207,-1.1845 -5.82109,-2.28158 -8.89486,-1.91754 l -1.79426,0.21251 2.64311,0.67003 c 1.45371,0.36852 3.37115,1.13889 4.26097,1.71193 0.88983,0.57305 1.67379,1.05599 1.74211,1.07319 0.0684,0.0173 0.59608,-0.30466 1.17271,-0.71526 z m 35.413078,-1.07312 c 1.058,-0.60534 2.023401,-1.26198 2.145289,-1.45921 0.192982,-0.31228 -1.50623,-3.19257 -1.883428,-3.19257 -0.0777,0 -1.120992,0.49463 -2.318592,1.09917 -1.579171,0.79716 -2.119659,1.24977 -1.96714,1.64727 0.115689,0.30144 0.210341,0.67482 0.210341,0.82972 0,0.35069 1.41772,2.17623 1.690061,2.17623 0.109879,0 1.06544,-0.49528 2.123469,-1.10061 z m 24.042301,-1.29682 c 0.98465,-0.30106 2.206649,-0.84386 2.715559,-1.20621 1.688161,-1.20209 5.361879,-11.66302 5.37555,-15.30686 l 0.006,-1.47356 -2.067282,0.37389 c -1.136999,0.20562 -6.718628,0.38336 -12.403619,0.39497 l -10.33635,0.0211 v 0.89882 c 0.003,1.58737 1.76407,7.54218 3.33117,11.25502 1.511861,3.58207 1.533761,3.61057 3.447471,4.48799 3.24467,1.48767 6.31843,1.6594 9.931048,0.55484 z m 17.42743,-3.93995 c 0.404749,-0.91496 0.73588,-1.72389 0.73588,-1.79762 0,-0.0736 -0.647142,-0.13407 -1.438111,-0.13407 -1.396101,0 -2.87618,0.92506 -2.87618,1.79762 0,0.61784 1.404681,1.79763 2.140321,1.79763 0.4894,0 0.925229,-0.50413 1.43809,-1.66356 z m -8.55068,-1.44293 c 5.186659,-4.25339 8.915969,-11.74918 9.8128,-19.72333 0.176398,-1.56851 0.14791,-1.68306 -0.22375,-0.8988 -4.148381,8.75447 -7.016372,13.83667 -11.330421,20.078 -2.127269,3.07764 -2.22798,3.30432 -1.198179,2.69645 0.618379,-0.36504 1.941158,-1.33358 2.93955,-2.15232 z m 12.210449,0.38588 c 1.001771,-0.50763 1.76489,-0.97242 1.695791,-1.03283 -0.069,-0.0604 -0.835562,-0.009 -1.703242,0.11403 -1.193998,0.16946 -1.650129,0.42058 -1.875909,1.03282 -0.372861,1.01109 -0.332089,1.00862 1.88336,-0.11402 z m -37.756179,-4.19309 c -0.998162,-2.32862 -3.118702,-9.23369 -4.059732,-13.21968 -0.752571,-3.18772 -0.80731,-4.2486 -0.820899,-15.90848 -0.008,-6.871142 -0.11253,-12.493221 -0.232191,-12.493491 -0.119689,-2.6e-4 -0.524168,1.33427 -0.89881,2.96561 -0.57085,2.48566 -0.67989,4.392739 -0.67323,11.774421 0.008,9.62504 0.134191,10.48453 2.70111,18.49798 1.18768,3.7076 4.184441,10.50106 4.495231,10.19028 0.101251,-0.10114 -0.128939,-0.91421 -0.511479,-1.80664 z m -8.205232,-1.42814 c 0.23862,-0.15165 0.898559,-0.27822 1.466562,-0.28125 0.891669,-0.005 0.96956,-0.0816 0.570388,-0.56259 -0.311801,-0.37569 -0.937019,-0.52202 -1.920078,-0.44941 -1.14645,0.0847 -1.57235,0.31279 -1.994472,1.06811 -0.462719,0.82798 -0.46772,1.08939 -0.0362,1.89555 l 0.500451,0.93509 0.4898,-1.16488 c 0.26939,-0.64069 0.68503,-1.28896 0.923639,-1.44062 z m -1.986478,-1.36532 c 0.246959,-0.39548 0.771218,-0.71906 1.165047,-0.71906 0.393782,0 0.71601,-0.0843 0.71601,-0.18737 0,-0.1031 -1.499708,-2.08494 -3.332699,-4.40418 -1.832981,-2.31924 -4.437489,-5.6416 -5.7878,-7.38301 -1.913779,-2.46804 -2.625688,-3.14188 -3.228629,-3.05595 -1.58074,0.2253 -0.83666,1.76308 4.445871,9.18824 2.848729,4.00421 5.268089,7.28037 5.376309,7.28037 0.108278,0 0.398889,-0.32356 0.645891,-0.71904 z m 52.443218,-9.13968 c 1.218222,-3.12867 1.821992,-5.13203 1.610452,-5.34357 -0.62885,-0.62884 -1.069752,0.10332 -2.934811,4.87325 -1.02286,2.61603 -1.94561,4.97288 -2.05052,5.23746 -0.132181,0.3333 0.0575,0.44371 0.617651,0.35952 0.67686,-0.10171 1.125519,-0.93594 2.757228,-5.12666 z m -19.874579,2.29231 c 0.621681,-0.14824 -3.2244,-0.28608 -8.546859,-0.30632 -9.257541,-0.0352 -11.879501,0.24712 -6.741951,0.72595 2.835751,0.26431 13.667229,-0.033 15.28881,-0.41963 z m -22.27743,-0.23062 c -0.66508,-0.13087 -0.785961,-0.48321 -0.9887,-2.88148 -0.12704,-1.50282 -0.230971,-4.25449 -0.230971,-6.11484 0,-2.16342 -0.129569,-3.30238 -0.359529,-3.160262 -0.216792,0.133983 -0.359521,2.640252 -0.359521,6.312902 v 6.09069 l 1.348211,-0.0489 c 0.741529,-0.0269 1.007239,-0.11605 0.59051,-0.19805 z m 25.43401,-5.50538 c 0.12574,-2.47173 0.273499,-6.597272 0.328361,-9.167871 l 0.0998,-4.67383 -13.416619,-0.0942 -13.416632,-0.0942 0.240951,5.48718 c 0.13253,3.017951 0.343749,7.228431 0.46935,9.356611 l 0.228362,3.86944 12.618908,-0.0943 12.61891,-0.0944 z m -24.695661,3.56392 c -0.13285,-0.21497 -0.0832,-0.54922 0.11035,-0.7428 0.2296,-0.22961 0.419491,-0.0938 0.546221,0.39084 0.204119,0.78063 -0.243422,1.02053 -0.656629,0.35196 z m 12.063431,-0.12721 c 0,-0.28494 0.152,-0.612 0.33777,-0.72682 0.185769,-0.11483 0.313121,0.1183 0.28303,0.51806 -0.0619,0.82099 -0.6208,1.00894 -0.6208,0.20876 z m 10.58663,0.12721 c -0.13285,-0.21497 -0.0832,-0.54922 0.110339,-0.7428 0.229611,-0.22961 0.419492,-0.0938 0.546222,0.39084 0.204118,0.78063 -0.243411,1.02053 -0.656611,0.35196 z m -21.496861,-5.77751 c -0.12926,-2.40391 -0.235019,-5.47785 -0.235019,-6.830961 V 94.03903 h 11.14525 11.145279 l -0.003,2.786319 c 0,1.53247 -0.106539,4.606401 -0.234698,6.830971 l -0.23304,4.04465 h -10.67521 -10.675562 l -0.23503,-4.37074 z m 20.19028,2.22815 c 1.050721,-1.42116 0.993682,-1.57819 -0.325329,-0.89609 -0.611611,0.31627 -1.167149,0.51987 -1.234559,0.45246 -0.0673,-0.0673 0.349488,-1.24141 0.926399,-2.60891 0.57695,-1.36748 0.999439,-2.535899 0.938879,-2.59646 -0.0605,-0.0605 -0.906029,0.9436 -1.878809,2.23147 -0.972831,1.28787 -1.809901,2.21637 -1.86019,2.06333 -0.0504,-0.15302 0.29827,-1.7343 0.774631,-3.51394 0.476348,-1.779651 0.81597,-3.286512 0.7547,-3.34857 -0.0612,-0.062 -0.977381,1.47492 -2.03581,3.41549 l -1.92446,3.52833 -0.179782,-3.77501 -0.179739,-3.77501 -0.685361,3.145841 c -0.37696,1.730209 -0.79221,3.145839 -0.922769,3.145839 -0.130561,0 -0.54102,-1.57741 -0.912071,-3.50536 -0.645208,-3.352282 -0.68643,-3.44255 -0.944018,-2.067269 -0.14814,0.790958 -0.27868,2.481619 -0.290081,3.757039 -0.01241,1.38508 -0.150731,2.18138 -0.343591,1.97737 -0.17758,-0.18784 -1.148299,-1.79082 -2.15715,-3.56217 -1.00887,-1.771351 -1.834269,-3.05766 -1.834269,-2.85845 0,0.199189 0.47757,1.88545 1.06127,3.74724 0.583689,1.8618 1.009891,3.43647 0.94711,3.49927 -0.0628,0.0628 -1.349311,-1.19878 -2.85892,-2.8035 -1.509599,-1.6047 -2.74473,-2.85139 -2.74473,-2.770401 0,0.081 0.728038,1.497661 1.617859,3.148131 0.88983,1.65048 1.617871,3.05869 1.617871,3.12934 0,0.0707 -0.89295,-0.44274 -1.984359,-1.14091 -1.091411,-0.69816 -2.073891,-1.26937 -2.183331,-1.26937 -0.109429,0 0.293719,0.59767 0.895869,1.32819 0.602141,0.7305 1.026631,1.39635 0.94334,1.47967 -0.0834,0.0833 -0.685549,-0.0277 -1.338289,-0.24681 l -1.186821,-0.39826 1.258351,1.06608 1.25834,1.06608 8.11159,0.0103 8.11154,0.0104 z M -72.468642,93.214589 c -0.153911,-0.354561 -0.178951,-0.745549 -0.0557,-0.868839 0.365102,-0.365091 0.659411,0.14774 0.491371,0.856221 -0.148989,0.628067 -0.16837,0.628618 -0.435721,0.0127 z m 12.03585,0.114839 c -0.3923,-0.248018 -0.42935,-0.445979 -0.13803,-0.737309 0.29133,-0.291319 0.450411,-0.19881 0.592489,0.344559 0.106781,0.408541 0.168961,0.74032 0.138031,0.737301 -0.0308,-0.003 -0.297551,-0.15807 -0.59249,-0.344551 z m 11.02241,0.110342 c -0.332441,-0.332459 -0.30113,-1.19842 0.0433,-1.19842 0.155681,0 0.307401,0.32357 0.33719,0.719051 0.0582,0.772639 -0.006,0.853717 -0.380518,0.479369 z m -31.798512,10.66133 c -0.510817,-1.89275 -0.779949,-2.34471 -1.518557,-2.5502 -1.164593,-0.324 -4.908611,-0.30963 -6.290561,0.0242 -1.159262,0.28 -1.04978,0.36439 1.438089,1.10852 1.91311,0.57222 5.37976,2.4107 6.149571,3.26131 0.339388,0.37502 0.667739,0.6312 0.729681,0.56926 0.062,-0.0619 -0.16678,-1.14781 -0.508223,-2.41305 z m 22.626611,-15.00092 10.661862,-0.142139 0.24533,-4.020863 c 0.134929,-2.211469 0.27155,-6.284679 0.30362,-9.051559 l 0.0583,-5.03071 -1.797629,-0.45908 c -3.684771,-0.94102 -9.284071,-1.29425 -13.569191,-0.85604 -3.958738,0.40484 -9.918938,1.62881 -10.392569,2.13419 -0.169532,0.1809 1.826109,16.697049 2.175269,18.00276 0.01929,0.0725 0.399251,0.005 0.844172,-0.151321 0.444907,-0.155717 5.60677,-0.34708 11.47082,-0.425238 z m 12.167931,-1.13389 c 0,-0.27154 4.42558,-9.733481 5.442019,-11.635101 0.266332,-0.49826 -0.01511,-1.00682 -1.34339,-2.42679 -1.802588,-1.92711 -3.379568,-2.43795 -3.379568,-1.09475 0,0.89998 -1.022892,12.766199 -1.2334,14.308479 -0.0878,0.642652 -0.008,1.16845 0.177429,1.16845 0.185291,0 0.33691,-0.144129 0.33691,-0.320288 z m 1.54064,78.4996 c -0.80554,-1.88801 -1.338961,-3.38453 -1.185439,-3.32559 0.537218,0.20625 6.79451,5.14276 6.814809,5.37636 0.02159,0.24941 -3.054929,1.382 -3.754059,1.382 -0.225901,0 -1.06979,-1.54474 -1.875311,-3.43277 z m -84.740508,-46.45116 c -0.27274,-0.27274 -0.27475,-6.56142 -0.003,-6.56142 0.45688,0 9.33972,2.99324 9.61633,3.24039 0.16319,0.14581 -0.44969,0.37703 -1.36194,0.51382 -2.05444,0.30809 -5.33517,1.41968 -6.87984,2.33107 -0.63946,0.37728 -1.25705,0.59154 -1.37246,0.47614 z M 0.55437943,115.3746 c -1.15852,-1.0796 -2.04834003,-2.02089 -1.97740003,-2.09176 0.071,-0.0709 0.98358003,-0.46566 2.02807003,-0.87732 2.25954997,-0.89054 2.31829997,-0.82058 2.16326997,2.57615 l -0.10758,2.35583 z m -125.16531943,-1.51795 -5.03335,-1.30215 0.11983,-1.97739 c 0.17678,-2.91711 0.92833,-6.29168 1.40123,-6.29168 0.66203,0 18.04469,8.23909 18.05955,8.55993 0.007,0.15997 -0.10781,0.21742 -0.25616,0.12766 -0.57186,-0.34613 -4.54996,0.54205 -6.22141,1.38904 -0.96475,0.48888 -2.04263,0.86814 -2.39523,0.84282 -0.35262,-0.0253 -2.90611,-0.63204 -5.67446,-1.34823 z m 118.2835794,-3.11674 c -1.38418,-0.66741 -2.71891,-1.21977 -2.96608,-1.22743 -0.24717,-0.008 -0.44366,-0.13529 -0.43662,-0.28359 0.0116,-0.24494 10.42283003,-6.2018 10.83932,-6.2018 0.2272,0 1.06212,4.46667 1.13592,6.07692 0.0553,1.20848 0.0255,1.23327 -2.46062997,2.04307 -1.38416003,0.45085 -2.75933003,0.81672 -3.05595003,0.81304 -0.29661,-0.005 -1.67179,-0.55278 -3.05596,-1.22021 z m -111.4526294,-3.39647 -10.06667,-3.92537 0.0413,-1.18418 c 0.0227,-0.6513 0.56458,-2.530062 1.20415,-4.175029 0.89654,-2.305953 1.29054,-2.941842 1.72054,-2.776842 0.97851,0.375491 20.94266,13.190551 20.93592,13.438841 -0.006,0.20927 -3.43082,2.59705 -3.67448,2.56161 -0.0518,-0.007 -4.62407,-1.78008 -10.16077,-3.93903 z m 102.644279,-0.36845 c -0.88983,-0.5716 -1.61786,-1.12141 -1.61786,-1.22179 0,-0.10033 3.31515,-2.62034 7.3669804,-5.5999 6.55654,-4.82141 7.41546,-5.351122 7.80747,-4.81501 0.5731,0.78376 2.39105003,6.24201 2.15693003,6.4761 -0.46789,0.4679 -13.01534043,6.24321 -13.52002043,6.22297 -0.31659,-0.0128 -1.30369,-0.49076 -2.1935,-1.06237 z m -98.948059,-6.68413 -11.04429,-5.960021 0.88136,-1.73926 c 0.48474,-0.95659 1.49948,-2.716889 2.25499,-3.911779 l 1.37367,-2.172542 1.41902,1.155102 c 1.10946,0.903079 18.26093,15.1056 18.80448,15.57129 0.15268,0.1308 -2.20502,3.01597 -2.46516,3.01672 -0.0988,2.6e-4 -5.14971,-2.68151 -11.22407,-5.95951 z m 93.039929,3.20502 -1.77361,-0.90905 2.67241,-2.57258 C -9.3993406,89.669929 -6.3842206,86.882009 -6.1195106,87.045608 c 0.43205,0.267031 3.56884,5.910832 3.55873,6.40297 -0.005,0.225851 -3.28081,2.476691 -7.28037,5.001871 -3.9995704,2.525181 -7.7572904,4.897961 -8.3505204,5.272851 -1.07447,0.67903 -1.0853,0.67816 -2.85217,-0.22742 z m -88.006949,-9.396901 c -5.6791,-4.086629 -10.51432,-7.622219 -10.74497,-7.856849 -0.32083,-0.326411 0.007,-0.95975 1.39427,-2.696441 0.99747,-1.24841 2.32201,-2.75282 2.94338,-3.34311 l 1.12977,-1.07328 1.69294,1.79232 c 0.9311,0.98578 5.16806,5.513411 9.41543,10.0614 4.247367,4.547981 7.860128,8.368461 8.028368,8.48996 0.2832,0.20452 -2.807541,2.152941 -3.309201,2.086151 -0.123421,-0.0165 -4.870897,-3.3735 -10.549987,-7.460151 z m 81.769039,7.010631 c -0.84703,-0.1908 -1.49417,-0.47476 -1.43809,-0.63102 0.2398,-0.668151 16.5127,-20.461061 16.82223,-20.461061 0.34255,0 4.0856604,4.3426 4.6874504,5.438169 0.2602,0.473702 -1.3991,2.003102 -8.7456704,8.06101 -4.98676,4.11203 -9.2286,7.580672 -9.42633,7.708122 -0.19774,0.12745 -1.05255,0.0756 -1.89959,-0.11522 z m -6.5439,-2.127171 c 0.005,-0.88819 1.71991,-3.927949 7.15348,-12.67324 3.93149,-6.32763 7.3729,-11.80783 7.64755,-12.17822 0.46883,-0.63221 0.68067,-0.50293 3.4601,2.11176 l 2.96066,2.78519 -1.68609,1.84301 c -1.70776,1.8667 -2.30628,2.50201 -12.49026,13.257909 -5.93959,6.273162 -7.05546,7.041872 -7.04544,4.853591 z m -68.711929,-9.63567 c -5.61498,-5.17633 -10.5222,-9.71064 -10.90495,-10.07625 -0.68622,-0.65551 -0.68123,-0.67833 0.35954,-1.64335 2.09682,-1.94426 5.56495,-4.80004 5.82395,-4.79569 0.14563,0.002 1.51246,1.74164 3.03735,3.86489 1.52491,2.12323 5.594228,7.74329 9.042947,12.48902 3.448712,4.745741 6.164832,8.73328 6.03581,8.86124 -0.129029,0.12795 -0.898559,0.34041 -1.710079,0.47213 l -1.475491,0.239501 z m 6.414457,-4.3518 -10.646217,-12.63925 0.82556,-0.64938 c 1.20968,-0.95152 6.730999,-4.34246 6.851188,-4.20765 0.0566,0.0634 1.79795,3.18916 3.869899,6.9462 8.181081,14.834869 12.49635,22.768271 12.49635,22.973892 0,0.118488 -0.618871,0.215447 -1.375259,0.215447 -1.366051,0 -1.44672,-0.0848 -12.021521,-12.639259 z m 61.960202,4.268099 -0.054,-3.689339 3.8227,-8.26085 c 2.1025,-4.54347 3.95861,-8.40418 4.12469,-8.57935 0.2704,-0.28517 6.20595,3.39152 6.65925,4.12496 0.0986,0.15963 -1.44494,2.52331 -3.43021,5.25262 -1.98529,2.72929 -5.15786,7.10481 -7.050169,9.723331 -1.892321,2.618539 -3.570552,4.84129 -3.729392,4.939459 -0.158848,0.0981 -0.313139,-1.481699 -0.342839,-3.510831 z m -56.269072,-9.457859 c -3.94149,-6.11199 -7.39878,-11.47784 -7.68285,-11.92409 -0.505769,-0.79457 -0.446629,-0.84412 2.852071,-2.38969 1.8527,-0.86806 3.716801,-1.68179 4.14242,-1.80828 0.72064,-0.21414 1.03501,0.43277 4.568259,9.40042 l 3.794342,9.63038 -0.253931,4.102001 -0.25395,4.102 z m 55.21135,-1.13316 c -0.247179,-1.73172 -0.733428,-3.98214 -1.080569,-5.00092 l -0.631179,-1.85234 1.19617,-3.78974 1.196189,-3.78973 1.343229,0.56016 c 1.44259,0.60162 5.006192,2.40679 5.753332,2.91438 0.34049,0.23135 -0.46356,1.98031 -3.188562,6.93567 -2.004128,3.64448 -3.755339,6.7489 -3.891549,6.89872 -0.136229,0.14982 -0.449901,-1.14447 -0.697061,-2.8762 z m -47.97693,-1.59766 c -0.497578,-1.05074 -2.20064,-4.61671 -3.784608,-7.92437 l -2.879961,-6.01392 3.29827,-1.040541 c 5.331938,-1.682169 5.1626,-1.672369 5.591609,-0.323759 0.63742,2.0036 2.20069,8.45908 2.20069,9.0875 0,0.32911 -0.346049,1.08437 -0.76899,1.67835 -0.422969,0.59397 -1.122469,2.1948 -1.55447,3.5574 -0.432009,1.3626 -0.878279,2.57023 -0.991669,2.68362 -0.11345,0.11333 -0.613269,-0.65352 -1.110871,-1.70428 z m 43.97144,-7.48867 c -0.69083,-0.56587 -2.064988,-1.3964 -3.053689,-1.84564 -0.988679,-0.44924 -1.851951,-0.85054 -1.918329,-0.89179 -0.0664,-0.0413 0.0771,-1.30147 0.319,-2.80052 0.290078,-1.79819 0.601379,-2.72552 0.91494,-2.72552 0.476088,0 7.303169,2.36439 7.55542,2.61663 0.10401,0.104129 -2.259592,6.34584 -2.5044,6.61346 -0.0313,0.0343 -0.622152,-0.40076 -1.312942,-0.96662 z m -39.82543,-4.2333 c -0.834679,-2.52911 -1.517629,-4.69412 -1.517629,-4.81112 0,-0.11699 1.577419,-0.48174 3.505369,-0.81054 1.92794,-0.32878 3.79738,-0.65864 4.154282,-0.73299 0.849159,-0.17692 1.15911,0.69239 1.576578,4.42181 l 0.33538,2.99615 -2.781239,1.39836 c -1.52966,0.76911 -2.88389,1.56452 -3.009371,1.76757 -0.488479,0.79031 -0.79702,0.21375 -2.26337,-4.22924 z m 8.76255,-1.62424 c -0.312679,-1.42213 -0.665639,-3.08667 -0.784418,-3.69899 l -0.215942,-1.1133 2.460691,-0.23237 c 1.353399,-0.1278 3.310091,-0.23351 4.34822,-0.23492 l 1.887509,-0.003 v 3.1864 3.18639 l -2.77517,0.44768 c -1.526349,0.24623 -3.13006,0.58261 -3.56381,0.74751 -0.73987,0.2813 -0.823759,0.13997 -1.35708,-2.28585 z m 22.07704,2.08635 c -1.087559,-0.25377 -2.55124,-0.56059 -3.252579,-0.68181 l -1.27522,-0.22043 0.130281,-2.42418 c 0.0717,-1.33331 0.18692,-2.60405 0.25617,-2.82389 0.0906,-0.28756 0.860988,-0.26068 2.746478,0.0958 5.63346,1.06522 5.614561,1.05257 5.02299,3.35981 -0.177419,0.69208 -0.422288,1.70325 -0.544108,2.24702 -0.245512,1.09582 -0.282882,1.10125 -3.084012,0.44764 z m -13.138068,-1.43634 c -0.0586,-0.19773 -0.208831,-1.630921 -0.333761,-3.18488 l -0.227169,-2.82538 2.984598,0.23361 c 1.64153,0.1285 3.607832,0.32488 4.369551,0.43639 l 1.384901,0.20278 -0.243102,2.02946 c -0.448799,3.74644 -0.11058,3.46756 -4.205089,3.46756 -2.104811,0 -3.668011,-0.15069 -3.729929,-0.35954 z"
       id="path825"
       inkscape:connector-curvature="0" />
  </g>
</svg>
